<svg width="18" height="22" viewBox="0 0 18 22" fill="none" xmlns="http://www.w3.org/2000/svg">
<path fill-rule="evenodd" clip-rule="evenodd" d="M16.4433 4.69329C16.9592 5.20852 17.2494 5.90753 17.25 6.63663V11.9991C17.2483 14.2608 16.2031 16.3952 14.4175 17.7833L10.6775 20.6983C10.355 20.9486 9.95821 21.0841 9.55 21.0833H8.45C8.04179 21.0841 7.64499 20.9486 7.3225 20.6983L3.5825 17.7833C1.7969 16.3952 0.751698 14.2608 0.75 11.9991V6.63663C0.750642 5.90753 1.04079 5.20852 1.55667 4.69329L4.7925 1.45746C5.13698 1.11092 5.60554 0.91624 6.09417 0.916627H11.9058C12.3945 0.91624 12.863 1.11092 13.2075 1.45746L16.4433 4.69329ZM7.83583 13.6216L12.9875 8.46996V8.46079C13.1622 8.28257 13.1622 7.99735 12.9875 7.81913L12.5017 7.33329C12.3234 7.1586 12.0382 7.1586 11.86 7.33329L7.515 11.6691L6.14 10.3033C6.05683 10.2147 5.9407 10.1644 5.81917 10.1644C5.69763 10.1644 5.58151 10.2147 5.49833 10.3033L5.0125 10.7891C4.92573 10.8752 4.87693 10.9923 4.87693 11.1145C4.87693 11.2368 4.92573 11.3539 5.0125 11.44L7.19417 13.6216C7.27734 13.7102 7.39346 13.7605 7.515 13.7605C7.63654 13.7605 7.75266 13.7102 7.83583 13.6216Z" fill="white"/>
</svg>
