<svg width="20" height="20" viewBox="0 0 20 20" fill="none" xmlns="http://www.w3.org/2000/svg">
<path fill-rule="evenodd" clip-rule="evenodd" d="M1.83801 5.83064C3.40197 2.7645 6.54995 0.834358 9.98848 0.833287C13.9126 0.822404 17.4073 3.31675 18.6767 7.03458C19.9461 10.7524 18.708 14.8668 15.5985 17.2636C12.489 19.6603 8.19977 19.8064 4.93486 17.6266L2.32566 18.47C2.15999 18.5199 1.98031 18.4741 1.85874 18.3508C1.73501 18.2293 1.69224 18.0473 1.74888 17.8833L2.57284 15.3716C0.557862 12.5818 0.274044 8.89678 1.83801 5.83064ZM13.4857 15.0691C14.2612 14.941 14.9357 14.4649 15.3168 13.7766C15.4546 13.3722 15.4768 12.9372 15.3808 12.5208C15.3222 12.4202 15.1718 12.3503 14.9364 12.2409C14.9144 12.2307 14.8916 12.2201 14.8682 12.2091C14.7935 12.1742 14.6425 12.1008 14.4572 12.0106C13.9604 11.769 13.2172 11.4075 13.0371 11.3475C12.8006 11.2331 12.516 11.3162 12.378 11.54C12.1595 11.8603 11.921 12.1665 11.6639 12.4566C11.4924 12.6212 11.2367 12.6614 11.023 12.5575C10.2283 12.2547 9.49827 11.8036 8.87156 11.2283C8.29145 10.692 7.7919 10.0745 7.38843 9.39495C7.26782 9.20345 7.31582 8.95115 7.49829 8.81745C7.56815 8.72752 7.64073 8.65121 7.71306 8.57515C7.77344 8.51166 7.83365 8.44835 7.89196 8.37745C8.01368 8.25325 8.11558 8.11103 8.19408 7.95579C8.26321 7.79362 8.246 7.60749 8.1483 7.46079C8.08422 7.31412 7.5166 5.92995 7.3335 5.48079C7.1504 5.03162 7.01307 5.03162 6.74757 5.03162H6.44545C6.11015 5.0252 5.78422 5.14268 5.52994 5.36162C4.9189 5.94146 4.58555 6.75585 4.61443 7.59829C4.70489 8.60102 5.08327 9.55612 5.70389 10.3483C6.83489 12.0846 8.41756 13.4791 10.2814 14.3816C12.378 15.2525 13.0097 15.17 13.4857 15.0691Z" fill="white"/>
</svg>
