<svg width="20" height="22" viewBox="0 0 20 22" fill="none" xmlns="http://www.w3.org/2000/svg">
<path fill-rule="evenodd" clip-rule="evenodd" d="M14.6843 15.3725L15.5001 16.1791V18.1133C15.4994 18.8424 15.2093 19.5414 14.6934 20.0566L14.4734 20.2766C13.9582 20.7925 13.2592 21.0826 12.5301 21.0833H7.47009C6.74099 21.0826 6.04199 20.7925 5.52676 20.2766L5.30676 20.0566C4.79088 19.5414 4.50073 18.8424 4.50009 18.1133V16.1791L5.31592 15.3725C5.43218 15.2562 5.47759 15.0867 5.43503 14.9279C5.39248 14.7691 5.26843 14.6451 5.10962 14.6025C4.9508 14.56 4.78135 14.6054 4.66509 14.7216L2.09842 17.2791C2.01525 17.3677 1.89913 17.418 1.77759 17.418C1.65605 17.418 1.53993 17.3677 1.45676 17.2791L0.970923 16.7933C0.882303 16.7101 0.832031 16.594 0.832031 16.4725C0.832031 16.3509 0.882303 16.2348 0.970923 16.1516L4.50009 12.6133V10.6791L5.31592 9.87246C5.43218 9.7562 5.47759 9.58675 5.43503 9.42793C5.39248 9.26912 5.26843 9.14507 5.10962 9.10251C4.9508 9.05996 4.78135 9.10536 4.66509 9.22162L2.09842 11.7791C2.01525 11.8677 1.89913 11.918 1.77759 11.918C1.65605 11.918 1.53993 11.8677 1.45676 11.7791L0.970923 11.2933C0.882303 11.2101 0.832031 11.094 0.832031 10.9725C0.832031 10.8509 0.882303 10.7348 0.970923 10.6516L4.50009 7.11329V4.27163C4.49908 3.19543 5.12593 2.21754 6.10426 1.76913C8.57722 0.632948 11.423 0.632948 13.8959 1.76913C14.8743 2.21754 15.5011 3.19543 15.5001 4.27163V7.11329L19.0293 10.6516C19.1179 10.7348 19.1681 10.8509 19.1681 10.9725C19.1681 11.094 19.1179 11.2101 19.0293 11.2933L18.5434 11.7791C18.4603 11.8677 18.3441 11.918 18.2226 11.918C18.1011 11.918 17.9849 11.8677 17.9018 11.7791L15.3351 9.22162C15.2188 9.10536 15.0494 9.05996 14.8906 9.10251C14.7317 9.14507 14.6077 9.26912 14.5651 9.42793C14.5226 9.58675 14.568 9.7562 14.6843 9.87246L15.5001 10.6791V12.6133L19.0293 16.1516C19.1179 16.2348 19.1681 16.3509 19.1681 16.4725C19.1681 16.594 19.1179 16.7101 19.0293 16.7933L18.5434 17.2791C18.4603 17.3677 18.3441 17.418 18.2226 17.418C18.1011 17.418 17.9849 17.3677 17.9018 17.2791L15.3351 14.7216C15.1554 14.5419 14.864 14.5419 14.6843 14.7216C14.5045 14.9013 14.5045 15.1927 14.6843 15.3725ZM12.7501 10.505C11.8597 10.2276 10.9327 10.0855 10.0001 10.0833C9.06731 10.0831 8.13996 10.2253 7.25009 10.505V7.86496C7.25368 7.56074 7.39956 7.27576 7.64426 7.09496C9.0781 6.19094 10.9037 6.19094 12.3376 7.09496C12.606 7.2898 12.7577 7.60707 12.7409 7.93829L12.7501 10.505ZM12.7501 17.1966C12.7491 17.4371 12.6536 17.6676 12.4843 17.8383L12.2551 18.0675C12.0844 18.2368 11.8539 18.3323 11.6134 18.3333H8.38676C8.14628 18.3323 7.91583 18.2368 7.74509 18.0675L7.51592 17.8383C7.34657 17.6676 7.2511 17.4371 7.25009 17.1966V16.1975C7.42083 16.3668 7.65128 16.4623 7.89176 16.4633H12.0351C12.2756 16.4623 12.506 16.3668 12.6768 16.1975L12.7501 17.1966Z" fill="white"/>
</svg>
