<svg width="18" height="21" viewBox="0 0 18 21" fill="none" xmlns="http://www.w3.org/2000/svg">
<path fill-rule="evenodd" clip-rule="evenodd" d="M4.63129 4.6747L3.21289 0H4.41323L5.18745 3.0954H5.26447L6.00068 0H7.21203L5.82363 4.53022V7.74502H4.63129V4.6747ZM7.1582 3.3371C7.1582 2.89562 7.30124 2.54243 7.58632 2.27955C7.8704 2.01767 8.25451 1.88623 8.73665 1.88623C9.17478 1.88623 9.53388 2.0247 9.81396 2.30062C10.094 2.57755 10.2341 2.93475 10.2341 3.36921V6.31912C10.2341 6.80977 10.096 7.19406 9.82096 7.47099C9.54588 7.74792 9.16877 7.88839 8.68764 7.88839C8.2245 7.88839 7.8534 7.74591 7.57532 7.45694C7.29824 7.17098 7.1582 6.78469 7.1582 6.29905V3.3371ZM8.24609 6.4063C8.24609 6.56382 8.2841 6.68523 8.36112 6.77052C8.43615 6.85581 8.54318 6.89895 8.68322 6.89895C8.82626 6.89895 8.94129 6.8548 9.02631 6.76751C9.11034 6.67921 9.15235 6.55981 9.15235 6.4063V3.29384C9.15235 3.16942 9.10934 3.06808 9.02331 2.99082C8.93729 2.91457 8.82226 2.87744 8.68322 2.87744C8.55418 2.87744 8.44915 2.91457 8.36813 2.99082C8.2881 3.06808 8.24609 3.16942 8.24609 3.29384V6.4063ZM11.8691 7.82824C12.0691 7.82824 12.2742 7.76503 12.4852 7.64562C12.6963 7.52422 12.8994 7.34562 13.0944 7.11384V7.74496H14.1537V2.03076H13.0944V6.36733C12.9944 6.49275 12.8854 6.5951 12.7663 6.67536C12.6473 6.75563 12.5493 6.79477 12.4712 6.79477C12.3712 6.79477 12.2992 6.76567 12.2562 6.70446C12.2112 6.64426 12.1902 6.54693 12.1902 6.41047V2.03076H11.1309V6.80681C11.1309 7.14795 11.1929 7.4018 11.3179 7.57238C11.4409 7.74195 11.625 7.82824 11.8691 7.82824ZM11.1101 13.9888C11.0341 13.9888 10.96 14.0078 10.888 14.046C10.813 14.0841 10.739 14.1403 10.668 14.2195V17.7795C10.754 17.8728 10.837 17.94 10.918 17.9812C10.9991 18.0223 11.0841 18.0424 11.1751 18.0424C11.3041 18.0424 11.4002 18.0023 11.4592 17.922C11.5222 17.8417 11.5522 17.7113 11.5522 17.5287V14.5788C11.5522 14.3851 11.5142 14.2396 11.4392 14.1403C11.3642 14.0389 11.2531 13.9888 11.1101 13.9888ZM15.0035 14.0111C14.8354 14.0111 14.7144 14.0612 14.6404 14.1656C14.5684 14.2689 14.5314 14.4395 14.5314 14.6813V15.2593H15.4666V14.6813C15.4666 14.4395 15.4296 14.2689 15.3556 14.1656C15.2826 14.0612 15.1655 14.0111 15.0035 14.0111ZM18.0003 15.1057C18.0023 16.1984 17.9653 17.2911 17.8833 18.3858C17.8833 19.7644 16.754 20.8842 15.3616 20.8842C13.374 20.9684 11.3434 21.0046 9.27185 20.9995C7.19926 21.0046 5.16668 20.9684 3.18112 20.8842C1.79072 20.8842 0.6614 19.7644 0.6614 18.3858C0.577376 17.2911 0.540366 16.1984 0.545367 15.1057C0.540366 14.0141 0.577376 12.9214 0.6614 11.8267C0.6614 10.4471 1.79072 9.32834 3.18112 9.32834C5.06966 9.25108 6.99821 9.21094 8.96377 9.21094C9.0668 9.21094 9.16882 9.21094 9.27185 9.21094C9.37388 9.21094 9.47691 9.21094 9.57894 9.21094C11.5455 9.21094 13.4741 9.25108 15.3616 9.32834C16.754 9.32834 17.8833 10.4471 17.8833 11.8267C17.9653 12.9214 18.0023 14.0141 18.0003 15.1057ZM4.32317 12.2473H5.55652V11.1226H1.89648V12.2473H3.12983V18.8686H4.32317V12.2473ZM8.56665 13.1542H7.50735V17.4908C7.40732 17.6162 7.29829 17.7185 7.18026 17.7988C7.06022 17.8781 6.96119 17.9182 6.88417 17.9182C6.78414 17.9182 6.71312 17.8881 6.66911 17.8279C6.6241 17.7677 6.60209 17.6694 6.60209 17.5339V13.1542H5.54279V17.9302C5.54279 18.2694 5.60581 18.5262 5.72884 18.6968C5.85388 18.8654 6.03793 18.9507 6.282 18.9507C6.48106 18.9507 6.68612 18.8895 6.89818 18.7691C7.10924 18.6476 7.31129 18.47 7.50735 18.2383V18.8684H8.56665V13.1542ZM12.6425 14.515C12.6425 14.0484 12.5544 13.6932 12.3784 13.4484C12.2003 13.2056 11.9453 13.0821 11.6112 13.0821C11.4471 13.0821 11.2841 13.1283 11.123 13.2196C10.964 13.3089 10.812 13.4413 10.6689 13.6159V11.1226H9.59961V18.8686H10.6689V18.4281C10.809 18.6037 10.959 18.7311 11.121 18.8144C11.2831 18.8987 11.4671 18.9408 11.6752 18.9408C11.9883 18.9408 12.2284 18.8315 12.3944 18.6167C12.5605 18.401 12.6425 18.09 12.6425 17.6846V14.515ZM16.5573 14.6884C16.5573 14.1476 16.4263 13.7322 16.1662 13.4432C15.9071 13.1543 15.535 13.0098 15.0509 13.0098C14.5767 13.0098 14.1896 13.1663 13.8885 13.4773C13.5894 13.7914 13.4414 14.1937 13.4414 14.6884V17.254C13.4414 17.8049 13.5774 18.2383 13.8495 18.5514C14.1226 18.8654 14.4957 19.022 14.9688 19.022C15.496 19.022 15.8931 18.8745 16.1582 18.5785C16.4243 18.2815 16.5573 17.84 16.5573 17.254V16.8256H15.467V17.2229C15.467 17.5601 15.432 17.7758 15.362 17.8741C15.2929 17.9724 15.1679 18.0226 14.9938 18.0226C14.8238 18.0226 14.7068 17.9654 14.6367 17.848C14.5647 17.7326 14.5317 17.5229 14.5317 17.2229V16.1453H16.5573V14.6884Z" fill="#AFB5BD"/>
</svg>
