<svg width="20" height="20" viewBox="0 0 20 20" fill="none" xmlns="http://www.w3.org/2000/svg">
<path fill-rule="evenodd" clip-rule="evenodd" d="M9.99992 0.833374C4.93731 0.833374 0.833252 4.93743 0.833252 10C0.833252 15.0627 4.93731 19.1667 9.99992 19.1667C15.0625 19.1667 19.1666 15.0627 19.1666 10C19.1666 7.56889 18.2008 5.23731 16.4817 3.51823C14.7626 1.79914 12.4311 0.833374 9.99992 0.833374ZM9.99992 17.3334C5.94983 17.3334 2.66659 14.0501 2.66659 10C2.66659 5.94995 5.94983 2.66671 9.99992 2.66671C14.05 2.66671 17.3333 5.94995 17.3333 10C17.3333 11.945 16.5606 13.8102 15.1854 15.1855C13.8101 16.5608 11.9448 17.3334 9.99992 17.3334ZM10.1403 4.62728C10.2326 4.53846 10.3579 4.49232 10.4858 4.50004L10.5224 4.51837C12.5628 4.71327 14.3255 6.02657 15.096 7.92587C15.8665 9.82518 15.517 11.9954 14.1891 13.5567C14.1024 13.6493 13.9813 13.7018 13.8545 13.7018C13.7277 13.7018 13.6066 13.6493 13.5199 13.5567L9.99992 10.0275V4.96754C9.99712 4.83948 10.048 4.71609 10.1403 4.62728Z" fill="white"/>
</svg>
