<svg width="16" height="20" viewBox="0 0 16 20" fill="none" xmlns="http://www.w3.org/2000/svg">
<path fill-rule="evenodd" clip-rule="evenodd" d="M0.666748 8.16665C0.666748 4.11656 3.94999 0.833313 8.00008 0.833313C12.0502 0.833313 15.3334 4.11656 15.3334 8.16665C15.3334 11.6101 13.6617 12.9572 12.1033 14.213C11.0812 15.0366 10.1079 15.821 9.68675 17.1316L9.21925 18.5433C9.08817 18.9332 8.71339 19.1881 8.30258 19.1666H7.78925C7.37844 19.1881 7.00366 18.9332 6.87258 18.5433L6.40508 17.1316C5.96706 15.8248 4.9801 15.0412 3.94606 14.2203C2.36166 12.9623 0.666748 11.6167 0.666748 8.16665ZM5.25008 8.16665C5.25008 9.68543 6.4813 10.9166 8.00008 10.9166C8.72943 10.9166 9.4289 10.6269 9.94462 10.1112C10.4604 9.59546 10.7501 8.89599 10.7501 8.16665C10.7501 6.64786 9.51886 5.41665 8.00008 5.41665C6.4813 5.41665 5.25008 6.64786 5.25008 8.16665Z" fill="white"/>
</svg>
